<svg width="20" height="21" viewBox="0 0 20 21" fill="none" xmlns="http://www.w3.org/2000/svg">
<path fill-rule="evenodd" clip-rule="evenodd" d="M10 18.8674C14.4183 18.8674 18 15.2856 18 10.8674C18 6.44909 14.4183 2.86737 10 2.86737C5.58172 2.86737 2 6.44909 2 10.8674C2 15.2856 5.58172 18.8674 10 18.8674ZM13.7071 9.57448C14.0976 9.18395 14.0976 8.55079 13.7071 8.16026C13.3166 7.76974 12.6834 7.76974 12.2929 8.16026L9 11.4532L7.70711 10.1603C7.31658 9.76974 6.68342 9.76974 6.29289 10.1603C5.90237 10.5508 5.90237 11.184 6.29289 11.5745L8.29289 13.5745C8.68342 13.965 9.31658 13.965 9.70711 13.5745L13.7071 9.57448Z" fill="#F6FFFE"/>
</svg>
