<?xml version="1.0" encoding="UTF-8"?>
<svg id="Layer_1" data-name="Layer 1" xmlns="http://www.w3.org/2000/svg" viewBox="0 0 1296.88 377.62">
  <defs>
    <style>
      .cls-1 {
        fill: #f6fffe;
      }

      .cls-2 {
        fill: #a7e1d8;
      }
    </style>
  </defs>
  <g>
    <circle class="cls-2" cx="83.1" cy="122.41" r="29.5"/>
    <path class="cls-2" d="M203.6,132.91c-1.97-2.34-7.69-6.08-40,5-34.95,11.98-52.42,17.97-69,28-2.92,1.77-8.56,5.3-16,5-8.44-.34-14.38-5.42-23-13-13.37-11.76-20.55-23.7-23-28-6.7-11.78-9.39-21.66-10-24-1.73-6.61-3.88-14.82-3-25,1.68-19.38,13.21-32.73,17-37,5.96-6.71,13.48-15.2,26-21,5.89-2.73,12.06-4.48,14-10,1.45-4.12,.32-9.71-3-12-1.56-1.07-5.71-2.86-21,6-9.42,5.46-20.73,12.02-32,26-5.78,7.18-15.19,18.86-19,37-3.97,18.9,.38,34.2,3,43,5.23,17.6,14.34,30.51,19,37,4.15,5.79,10.86,14.19,20.39,28.77,4.82,7.37,7.55,12.03,7.61,18.23,.09,8.65-5.07,14.83-9,20,0,0-16.91,22.26-29,55-2.14,5.79-4.09,14.53-8,32-4.88,21.81-7.13,36.93-1,44,1.01,1.17,3.63,4.19,7,4,.72-.04,3.15-.32,6-4,4.71-6.08,3.83-12.78,4.78-23.01,.36-3.88,1.31-8.58,3.22-17.99,.8-3.94,3.44-16.22,9-30,8.38-20.77,18.71-33.31,26-42,8.21-9.79,12.1-12.19,16.48-12.76,9.03-1.18,17.03,5.83,21.52,9.76,6.53,5.72,10.22,11.8,14,19,9.89,18.85,14.84,28.28,17,42,4.01,25.5-5.6,39.76,4,48,3.21,2.76,8.27,4.58,12,3,1.52-.65,5.46-2.99,7-20,1.15-12.75,1.58-24.96-4-43-8.31-26.83-26.47-53.05-32-60-.94-1.18-3.78-4.65-6-10-1.84-4.44-3.02-9.58-3-13,.1-16.22,27.34-29,38-34,8.76-4.11,16.49-6.54,22-8,21-5.79,33.31-4.14,37-12,1.6-3.41,1.38-8.18-1-11Z"/>
  </g>
  <g>
    <path class="cls-1" d="M323.26,186.77h-75.61c-10.37,0-15.55,4.83-15.55,14.48v131.63h25.77v-60.92h68.8c2.13-3.55,3.19-7.46,3.19-11.71,0-7.67-4.26-11.5-12.78-11.5h-59.21v-38.77h74.98c2.13-3.55,3.2-7.46,3.2-11.71,0-7.67-4.26-11.5-12.78-11.5Z"/>
    <path class="cls-1" d="M439.38,230.43c-8.88-4.97-18.85-7.46-29.93-7.46s-21.02,2.49-29.82,7.46c-8.81,4.97-15.8,11.71-20.98,20.24-5.19,8.52-7.77,18.1-7.77,28.75s2.59,20.24,7.77,28.76c5.18,8.52,12.17,15.27,20.98,20.23,8.8,4.97,18.74,7.46,29.82,7.46s21.05-2.49,29.93-7.46c8.87-4.97,15.87-11.71,20.98-20.23,5.11-8.52,7.67-18.11,7.67-28.76s-2.56-20.23-7.67-28.75c-5.11-8.52-12.11-15.26-20.98-20.24Zm-.96,67.2c-2.84,5.33-6.78,9.48-11.82,12.46-5.04,2.98-10.76,4.47-17.15,4.47s-12.11-1.49-17.15-4.47c-5.04-2.98-8.98-7.13-11.82-12.46-2.84-5.32-4.26-11.39-4.26-18.21s1.42-12.89,4.26-18.21c2.84-5.32,6.78-9.48,11.82-12.46,5.04-2.98,10.76-4.47,17.15-4.47s12.1,1.49,17.15,4.47c5.04,2.98,8.98,7.14,11.82,12.46,2.84,5.32,4.26,11.39,4.26,18.21s-1.42,12.89-4.26,18.21Z"/>
    <path class="cls-1" d="M556.2,227.24c-5.25-2.84-12.71-4.26-22.36-4.26-14.2,0-25.31,3.62-33.33,10.86-8.02,7.24-12.03,17.33-12.03,30.25v68.8h24.28v-61.77c0-17.61,8.31-26.41,24.92-26.41,7.81,0,14.84,1.56,21.09,4.69,1.13-.71,2.31-2.2,3.51-4.47,1.2-2.27,1.81-4.54,1.81-6.82,0-4.4-2.63-8.02-7.88-10.86Z"/>
    <path class="cls-1" d="M727.45,227.99c-6.96-3.33-15.05-5.01-24.28-5.01-18.04,0-31.24,6.46-39.62,19.38-8.38-12.92-21.8-19.38-40.26-19.38-9.37,0-17.57,1.67-24.6,5.01-7.03,3.34-12.5,8.09-16.4,14.27-3.91,6.18-5.86,13.46-5.86,21.83v68.8h24.28v-60.49c0-8.95,2.16-15.76,6.5-20.45,4.33-4.69,10.4-7.03,18.21-7.03,8.38,0,14.73,2.59,19.06,7.78,4.33,5.18,6.5,12.53,6.5,22.04v58.15h24.28v-58.15c0-9.51,2.24-16.86,6.71-22.04,4.47-5.18,10.9-7.78,19.28-7.78,7.81,0,13.77,2.27,17.89,6.82,4.12,4.55,6.18,11.36,6.18,20.45v60.71h24.28v-69.01c0-8.38-1.95-15.62-5.86-21.73-3.91-6.1-9.34-10.83-16.29-14.16Z"/>
    <path class="cls-1" d="M868.67,186.77h-75.62c-10.37,0-15.55,4.83-15.55,14.48v131.63h25.77v-60.92h68.8c2.13-3.55,3.19-7.46,3.19-11.71,0-7.67-4.26-11.5-12.78-11.5h-59.21v-38.77h74.98c2.13-3.55,3.2-7.46,3.2-11.71,0-7.67-4.26-11.5-12.78-11.5Z"/>
    <path class="cls-1" d="M987.18,225.96c-3.83,0-6.92,.96-9.27,2.88-2.34,1.92-3.51,4.72-3.51,8.41v45.58c0,9.52-2.38,16.86-7.14,22.04-4.76,5.19-11.68,7.78-20.77,7.78s-15.41-2.38-20.24-7.13c-4.83-4.76-7.24-11.54-7.24-20.34v-56.87c-1.42-.71-3.2-1.28-5.33-1.71s-4.19-.64-6.18-.64c-3.83,0-6.92,.96-9.26,2.88-2.34,1.92-3.51,4.72-3.51,8.41v52.82c0,8.81,1.99,16.47,5.96,23,3.97,6.53,9.51,11.54,16.61,15.02,7.1,3.48,15.26,5.22,24.49,5.22,7.95,0,14.8-1.24,20.55-3.73,5.75-2.48,9.97-5.79,12.67-9.9v5.96c0,11.22-3.06,19.42-9.16,24.6-6.11,5.18-14.91,7.78-26.41,7.78-3.83,0-7.92-.25-12.25-.75-4.33-.5-8.49-1.21-12.46-2.13-3.98-.93-7.24-1.96-9.8-3.09l-6.18,18.11c5.54,2.13,12.28,3.9,20.24,5.32,7.95,1.42,15.62,2.13,23,2.13,18.17,0,32.16-4.72,41.96-14.16,9.8-9.45,14.7-23.4,14.7-41.86v-93.29c-1.42-.71-3.19-1.28-5.32-1.71-2.13-.43-4.19-.64-6.18-.64Z"/>
    <path class="cls-1" d="M1081.54,269.41l-21.73-2.77c-6.25-.85-10.83-2.31-13.74-4.37-2.91-2.06-4.37-4.72-4.37-7.99,0-4.26,2.09-7.49,6.28-9.69,4.19-2.2,10.04-3.3,17.57-3.3,5.39,0,10.79,.53,16.19,1.6,5.39,1.06,10.22,2.42,14.48,4.05,4.26,1.63,7.31,3.38,9.16,5.22,1.99-.99,3.73-2.62,5.22-4.9,1.49-2.27,2.24-4.47,2.24-6.6,0-3.41-1.92-6.42-5.75-9.05-3.83-2.62-9.09-4.72-15.76-6.28-6.68-1.56-14.34-2.34-23-2.34-16.47,0-29.04,2.88-37.7,8.63-8.66,5.75-12.99,14.16-12.99,25.24,0,9.09,2.91,16.19,8.73,21.3,5.82,5.11,14.13,8.38,24.92,9.8l21.73,2.77c13.63,1.71,20.45,6.18,20.45,13.42,0,8.52-8.38,12.78-25.13,12.78-8.52,0-16.76-1.06-24.71-3.2-7.95-2.13-14.2-4.61-18.74-7.46l-9.16,16.4c3.12,2.27,7.63,4.44,13.53,6.5,5.89,2.06,12.42,3.69,19.6,4.9,7.17,1.21,14.09,1.81,20.77,1.81,14.77,0,26.66-3.09,35.68-9.27,9.02-6.18,13.53-14.8,13.53-25.88,0-17.75-12.43-28.19-37.28-31.31Z"/>
    <path class="cls-1" d="M1152.47,178.04c-4.26,0-7.77,1.42-10.54,4.26-2.77,2.84-4.15,6.39-4.15,10.65s1.38,7.81,4.15,10.65c2.77,2.84,6.28,4.26,10.54,4.26s7.77-1.42,10.54-4.26c2.77-2.84,4.15-6.39,4.15-10.65s-1.38-7.81-4.15-10.65c-2.77-2.84-6.28-4.26-10.54-4.26Z"/>
    <path class="cls-1" d="M1153.32,225.96c-3.83,0-6.96,.96-9.37,2.88-2.42,1.92-3.62,4.72-3.62,8.41v95.64h24.28v-104.58c-1.28-.71-2.98-1.28-5.11-1.71s-4.19-.64-6.18-.64Z"/>
    <path class="cls-1" d="M1270.47,301.9c-10.22-10.29-20.8-19.56-31.74-27.8,4.26-2.84,9.05-6.14,14.38-9.9,5.33-3.76,10.61-7.6,15.87-11.5,5.25-3.9,10.01-7.49,14.27-10.76,4.26-3.26,7.38-5.82,9.37-7.67-1.14-2.27-2.91-4.22-5.33-5.86-2.42-1.63-5.61-2.45-9.58-2.45-2.42,0-5.19,.46-8.31,1.38-3.12,.93-6.53,2.8-10.22,5.64l-44.3,32.38v-87.12c-1.28-.71-2.98-1.28-5.11-1.7s-4.19-.64-6.18-.64c-3.83,0-6.96,.96-9.37,2.88-2.42,1.92-3.62,4.72-3.62,8.41v145.69h24.28v-48.14c6.82,4.97,13.45,10.26,19.92,15.87,6.46,5.61,12.42,11.18,17.89,16.72,5.46,5.54,10.12,10.72,13.95,15.55h30.25c-7.38-10.36-16.19-20.69-26.41-30.99Z"/>
  </g>
</svg>