<?xml version="1.0" encoding="UTF-8"?>
<svg id="Layer_2" data-name="Layer 2" xmlns="http://www.w3.org/2000/svg" viewBox="0 0 1045 719">
  <defs>
    <style>
      .cls-1 {
        fill: #004c3b;
      }

      .cls-2 {
        fill: none;
        stroke: #f3fffd;
        stroke-miterlimit: 10;
        stroke-width: 5.11px;
      }
    </style>
  </defs>
  <path class="cls-1" d="M894,693.58c-9.57,6.32-20.38,6.77-31.33,6.63-11.18-.14-22.41-.95-33.53-.17-23.12,1.63-45.27-3.42-67.7-7.64-16.46-3.1-33.33-4.74-50.08-5.41-23.6-.95-47.27-.46-70.91-.49-12.16-.01-24.33,.03-36.48,.33-15.48,.38-30.95,1.03-46.43,1.66-1.22,.05-3.1,.56-3.51,1.41-4.02,8.35-10.83,6.35-17.56,5.08-3.99-.76-8.13-2.14-12.04-1.74-27.18,2.81-50.3-8.02-73.08-20.66-11.38-6.32-22.78-12.94-34.87-17.61-20.95-8.1-38.67-21.19-56.29-34.36-18.31-13.69-35.5-28.86-53.66-42.76-6.85-5.24-15.26-8.4-22.59-13.09-20.56-13.17-38.85-28.93-54.88-47.47-7.11-8.22-15.76-15.11-23.71-22.6-.68,.59-1.35,1.19-2.03,1.78-1.16,10.73-1.96,21.51-3.64,32.16-.87,5.55-2.75,11.11-5.11,16.24-11.93,25.86-19.35,53.05-23.38,81.09-1.5,10.42-1.15,21.24-.52,31.8,.45,7.63-2.47,12.01-9.49,12.45-15.73,.99-31.53,1.79-47.28,1.5-16.87-.32-33.72-1.83-50.55-3.2-2.51-.2-4.84-2.49-7.26-3.81,1.82-1.88,3.28-4.58,5.5-5.52,17.29-7.36,34.82-14.17,52.09-21.58,11.91-5.11,16.26-16.69,20.33-27.46,7.14-18.87,9.85-38.65,10.68-58.94,1.04-25.19,3.95-50.3,6.02-75.44,.69-8.39-.08-17.19,2.27-25.07,3.05-10.25,7.26-20.66,13.29-29.4,7.33-10.62,19.51-13.64,31.47-9.37,21.5,7.67,42.7,16.27,63.59,25.49,7.27,3.21,10.52,2.14,12.61-4.95,4.83-16.42,9.2-32.99,14.68-49.2,3.01-8.89,6.92-17.8,12.12-25.56,9.08-13.57,18.92-26.74,29.46-39.21,11.76-13.92,23.81-27.84,37.44-39.82,6.09-5.35,16.18-6.89,24.76-8.47,11.96-2.21,24.3-2.37,36.31-4.4,4.07-.69,8.8-3.54,11.26-6.87,34.1-46.07,76.76-83.33,121.55-118.33,15.67-12.25,32.45-23.06,48.52-34.8,7.23-5.28,13.83-11.42,21.02-16.76,3.62-2.69,7.7-5.43,11.98-6.46,13.77-3.31,23.82-11.18,31.62-22.68,5.91-8.71,11.91-17.41,18.58-25.53,4.74-5.77,11.49-8.49,19.06-5.99,10.05,3.33,21.46,4.88,25.16,17.64,.29,1.01,4.21,1.88,6.05,1.38,5.76-1.56,11.25-4.1,17.01-5.64,2.78-.75,5.93-.13,8.92-.13,.36,.92,.72,1.84,1.09,2.75-3.39,2.71-6.54,5.8-10.22,8.04-9.29,5.67-18.88,10.85-28.19,16.48-2.52,1.52-4.93,3.63-6.59,6.03-1.58,2.28-3.47,5.83-2.69,7.84,.76,1.94,4.67,2.82,7.32,3.83,4.5,1.72,9.26,2.85,13.57,4.94,1.33,.65,1.53,3.63,2.24,5.54-1.9,.59-3.84,1.79-5.71,1.68-14.8-.86-29.63-1.51-44.34-3.19-8.47-.97-12.57,5.08-16.9,9.5-9.42,9.62-17.58,20.47-26.31,30.78-7.57,8.94-15.61,17.51-22.75,26.78-14.82,19.25-33.88,33.66-52.69,48.58-8.4,6.67-15.27,15.52-21.9,24.1-4.85,6.28-2.96,8.33,4.7,10.48,3.09,.87,6.85,4.8,7.48,7.91,1.78,8.84,6.89,13.76,14.1,18.74,6.57,4.55,12.46,11.43,16.04,18.59,4.06,8.13,10.42,15.83,8.16,26.59-7.24,34.45-23.96,56.02-62.08,59.64-6.67,.63-10.83,4.13-9.88,9.29,5.77,31.31-3.05,63.98,9.26,94.66,3.81,9.49,6.48,19.46,9.15,29.36,1.88,6.97-2.01,12.07-8.59,13.39,1.58-5.32,3.27-11.05,4.97-16.79-.91-.48-1.82-.97-2.73-1.45-3.62,9.31-8.32,17.39-20.05,18.96,2.92-6.36,7.2-11.9,7.64-17.73,.4-5.44-3.28-11.19-5.17-16.8-.94,.11-1.88,.22-2.83,.32-2.08,5.23-4.16,10.45-6.86,17.25-1.78-11.33-1.84-11.22-11.53-7.82-5,1.76-10.26,2.79-15.74,3.08,3.06-2.53,6.12-5.07,9.19-7.6-.73-.3-1.46-.59-2.19-.89,.33-2.97,.54-5.95,1-8.89,1.85-11.8,3.77-23.59,5.66-35.38-1.08-.23-2.17-.46-3.25-.7-1.86,7.21-3.72,14.43-5.58,21.64-.43-.04-.86-.07-1.29-.11,.98-10.57,1.96-21.13,3.05-32.87-3.79,1.11-5.92,1.73-9.64,2.82,4.66-6.75,9.31-11.9,11.98-17.93,1.7-3.83,2.31-10.24,.22-13.3-9.76-14.26-16.46-29.2-17.43-46.74-.46-8.27-14.92-10.58-22.94-3.82-7.28,6.14-14.6,12.29-21.46,18.89-14.3,13.75-28.65,27.48-42.32,41.85-7.45,7.83-7.11,18.48-4.52,27.95,4.95,18.07,11.7,35.63,16.89,53.64,3.07,10.67,5.01,21.73,6.68,32.73,1.89,12.44,7.98,21.01,18.56,28.17,21.88,14.82,42.79,31.07,64.23,46.54,6.17,4.45,12.44,9.16,19.37,12.07,5.39,2.27,11.96,3.04,17.86,2.56,17.29-1.4,34.31-5.48,51.87-.31,5.79,1.7,12.85-.76,19.3-1.52,20.49-2.4,39.17,5.27,58.24,10.51,18.85,5.18,37.67,10.09,57.37,10.84,5.58,.21,11.22,1.54,16.61,3.12,9.34,2.74,16.44-1.32,21.54-7.93,11.14-14.43,21.62-13.23,35.89-1.95,17.12,13.53,35.37,24.14,56.28,30.66,5.22,1.63,9,7.52,13.84,10.87,3.26,2.26,7.2,3.57,10.89,5.19,5.55,2.45,11.14,4.8,16.72,7.19v3.27Z"/>
  <path class="cls-1" d="M894,693.15c-9.57,6.32-20.38,6.77-31.33,6.63-11.18-.14-22.41-.95-33.53-.17-23.12,1.63-45.27-3.42-67.7-7.64-16.46-3.1-33.33-4.74-50.08-5.41-23.6-.95-47.27-.46-70.91-.49-12.16-.01-24.33,.03-36.48,.33-15.48,.38-30.95,1.03-46.43,1.66-1.22,.05-3.1,.56-3.51,1.41-4.02,8.35-10.83,6.35-17.56,5.08-3.99-.76-8.13-2.14-12.04-1.74-27.18,2.81-50.3-8.02-73.08-20.66-11.38-6.32-22.78-12.94-34.87-17.61-20.95-8.1-38.67-21.19-56.29-34.36-18.31-13.69-35.5-28.86-53.66-42.76-6.85-5.24-15.26-8.4-22.59-13.09-20.56-13.17-38.85-28.93-54.88-47.47-7.11-8.22-15.76-15.11-23.71-22.6-.68,.59-1.35,1.19-2.03,1.78-1.16,10.73-1.96,21.51-3.64,32.16-.87,5.55-2.75,11.11-5.11,16.24-11.93,25.86-19.35,53.05-23.38,81.09-1.5,10.42-1.15,21.24-.52,31.8,.45,7.63-2.47,12.01-9.49,12.45-15.73,.99-31.53,1.79-47.28,1.5-16.87-.32-33.72-1.83-50.55-3.2-2.51-.2-4.84-2.49-7.26-3.81,1.82-1.88,3.28-4.58,5.5-5.52,17.29-7.36,34.82-14.17,52.09-21.58,11.91-5.11,16.26-16.69,20.33-27.46,7.14-18.87,9.85-38.65,10.68-58.94,1.04-25.19,3.95-50.3,6.02-75.44,.69-8.39-.08-17.19,2.27-25.07,3.05-10.25,7.26-20.66,13.29-29.4,7.33-10.62,19.51-13.64,31.47-9.37,21.5,7.67,42.7,16.27,63.59,25.49,7.27,3.21,10.52,2.14,12.61-4.95,4.83-16.42,9.2-32.99,14.68-49.2,3.01-8.89,6.92-17.8,12.12-25.56,9.08-13.57,18.92-26.74,29.46-39.21,11.76-13.92,23.81-27.84,37.44-39.82,6.09-5.35,16.18-6.89,24.76-8.47,11.96-2.21,24.3-2.37,36.31-4.4,4.07-.69,8.8-3.54,11.26-6.87,34.1-46.07,76.76-83.33,121.55-118.33,15.67-12.25,32.45-23.06,48.52-34.8,7.23-5.28,13.83-11.42,21.02-16.76,3.62-2.69,7.7-5.43,11.98-6.46,13.77-3.31,23.82-11.18,31.62-22.68,5.91-8.71,11.91-17.41,18.58-25.53,4.74-5.77,11.49-8.49,19.06-5.99,10.05,3.33,21.46,4.88,25.16,17.64,.29,1.01,4.21,1.88,6.05,1.38,5.76-1.56,11.25-4.1,17.01-5.64,2.78-.75,5.93-.13,8.92-.13,.36,.92,.72,1.84,1.09,2.75-3.39,2.71-6.54,5.8-10.22,8.04-9.29,5.67-18.88,10.85-28.19,16.48-2.52,1.52-4.93,3.63-6.59,6.03-1.58,2.28-3.47,5.83-2.69,7.84,.76,1.94,4.67,2.82,7.32,3.83,4.5,1.72,9.26,2.85,13.57,4.94,1.33,.65,1.53,3.63,2.24,5.54-1.9,.59-3.84,1.79-5.71,1.68-14.8-.86-29.63-1.51-44.34-3.19-8.47-.97-12.57,5.08-16.9,9.5-9.42,9.62-17.58,20.47-26.31,30.78-7.57,8.94-15.61,17.51-22.75,26.78-14.82,19.25-33.88,33.66-52.69,48.58-8.4,6.67-15.27,15.52-21.9,24.1-4.85,6.28-2.96,8.33,4.7,10.48,3.09,.87,6.85,4.8,7.48,7.91,1.78,8.84,6.89,13.76,14.1,18.74,6.57,4.55,12.46,11.43,16.04,18.59,4.06,8.13,10.42,15.83,8.16,26.59-7.24,34.45-23.96,56.02-62.08,59.64-6.67,.63-10.83,4.13-9.88,9.29,5.77,31.31-3.05,63.98,9.26,94.66,3.81,9.49,6.48,19.46,9.15,29.36,1.88,6.97-2.01,12.07-8.59,13.39,1.58-5.32,3.27-11.05,4.97-16.79-.91-.48-1.82-.97-2.73-1.45-3.62,9.31-8.32,17.39-20.05,18.96,2.92-6.36,7.2-11.9,7.64-17.73,.4-5.44-3.28-11.19-5.17-16.8-.94,.11-1.88,.22-2.83,.32-2.08,5.23-4.16,10.45-6.86,17.25-1.78-11.33-1.84-11.22-11.53-7.82-5,1.76-10.26,2.79-15.74,3.08,3.06-2.53,6.12-5.07,9.19-7.6-.73-.3-1.46-.59-2.19-.89,.33-2.97,.54-5.95,1-8.89,1.85-11.8,3.77-23.59,5.66-35.38-1.08-.23-2.17-.46-3.25-.7-1.86,7.21-3.72,14.43-5.58,21.64-.43-.04-.86-.07-1.29-.11,.98-10.57,1.96-21.13,3.05-32.87-3.79,1.11-5.92,1.73-9.64,2.82,4.66-6.75,9.31-11.9,11.98-17.93,1.7-3.83,2.31-10.24,.22-13.3-9.76-14.26-16.46-29.2-17.43-46.74-.46-8.27-14.92-10.58-22.94-3.82-7.28,6.14-14.6,12.29-21.46,18.89-14.3,13.75-28.65,27.48-42.32,41.85-7.45,7.83-7.11,18.48-4.52,27.95,4.95,18.07,11.7,35.63,16.89,53.64,3.07,10.67,5.01,21.73,6.68,32.73,1.89,12.44,7.98,21.01,18.56,28.17,21.88,14.82,42.79,31.07,64.23,46.54,6.17,4.45,12.44,9.16,19.37,12.07,5.39,2.27,11.96,3.04,17.86,2.56,17.29-1.4,34.31-5.48,51.87-.31,5.79,1.7,12.85-.76,19.3-1.52,20.49-2.4,39.17,5.27,58.24,10.51,18.85,5.18,37.67,10.09,57.37,10.84,5.58,.21,11.22,1.54,16.61,3.12,9.34,2.74,16.44-1.32,21.54-7.93,11.14-14.43,21.62-13.23,35.89-1.95,17.12,13.53,35.37,24.14,56.28,30.66,5.22,1.63,9,7.52,13.84,10.87,3.26,2.26,7.2,3.57,10.89,5.19,5.55,2.45,11.14,4.8,16.72,7.19v3.27Z"/>
  <g>
    <path class="cls-2" d="M1405.38,735.68c-25.29,33.42-63.51,51.64-100.23,70.1-65.52,32.93-127.56,70.53-178.41,122.4-27.63,28.18-47.04,63.14-71.88,94.24-23.05,28.85-45.24,58.82-74.38,82.04-36.63,29.19-80.05,45.22-125.34,53.22-25.34,4.48-47.71,1.75-72.76-4.09-57.01-13.31-114.74-22.07-172.77-28.51-69.94-7.76-174.63-4.87-219.22-70.63-4.53-6.69-7.16-12.64-7.92-14.4-22.05-50.79-10.07-116.82-9.46-170.6,.37-32.59,7.31-65.63,13.97-97.37,10.38-49.45,20.85-99.83,50.57-141.99,19.48-27.64,46.86-47.56,74.71-66.06,49.88-33.14,103.07-62.06,156.54-88.64,59.02-29.34,126.23-51.98,178.4-92.53,23.61-18.36,43.12-39.06,61.45-62.79,12.11-15.67,24.76-28.1,43.38-35.79,73.36-30.29,170.46-1.87,237.01,33.78,29.98,16.06,57.42,40.67,83.99,61.02,31.17,23.87,70.33,46.3,95.47,76.75,23.95,29,33.5,60.6,37.96,97.7,5.49,45.73,6.29,92.61,8.91,139.04,.96,16.95,.55,29.2-9.99,43.13Z"/>
    <path class="cls-2" d="M1340.32,693.04c-16.84,42.19-59.49,69.7-95.7,94.17-73.52,49.67-147.13,98.2-209.43,161.26-40.56,41.05-74.99,89.71-117.45,129.28-21.41,19.96-44.94,32.75-73.51,37.7-24.86,4.31-52.82-.61-77.81-3.87-55.05-7.17-109.43-19.12-163.14-32.75-55.45-14.08-111.92-32.04-152.16-75-13.92-14.86-23.64-32.17-30.56-50.7-12.74-34.09-13.22-76.07-5.72-111.5,5.19-24.52,23.31-44.91,34.66-66.76,14.22-27.36,24.35-57.34,34.93-86.84,1.59-4.42,3.35-8.51,5.71-12.64,22.25-38.8,63.02-68.72,100.03-92.25,45.92-29.19,94.35-54.45,143.29-78.04,56.51-27.24,117.4-49.87,170.64-82.85,26.39-16.35,51.01-34.73,75.08-54.5,14.49-11.9,28.89-20.8,47.5-24.64,82.63-17.06,192.17,22.01,253.62,77.46,41.67,37.59,37.55,105.23,45.79,156.32,4.32,26.75,9.49,53.26,15.49,79.71,2.97,13.07,3.8,23.72-1.28,36.44Z"/>
    <path class="cls-2" d="M1255.51,677.65c-28.55,69.76-100.34,117.88-158.76,162.47-60.47,46.15-132.53,72.47-191.14,120.67-35.56,29.24-68.5,75.98-113.54,89.41-59.55,17.77-118.06,2.85-174.84-20.98-55.71-23.39-125.61-52.36-147.21-114.62-15-43.24,19.33-100.35,35.96-138,24.98-56.55,63.65-107.91,112.77-144.04,17.7-13.02,36.89-25.17,56.13-36.52,17.83-10.51,36.61-19.33,55.29-28.23,29-14.06,58.46-27.46,87.83-40.34,84.37-37,150.83-125.92,247.39-135.55,53.73-5.36,122.3,14.97,160.28,54.41,10.22,10.61,13.5,22.02,15.01,36.31,2.27,21.54,5.46,41.82,11.75,62.41,4.51,14.73,14.53,27.45,18.4,42.64,7.74,30.36-4.08,62.51-15.31,89.94Z"/>
    <path class="cls-2" d="M1199.31,633.35c-3.2,51.25-58.04,91.37-95.18,119.95-52.71,40.56-109.65,76.18-161.83,116.62-72.26,56-147.58,134.55-247.13,127.12-60.12-4.49-123.29-30.69-156.06-83.69-9.73-15.74-16.59-32.73-20.14-50.4-7.26-36.1,33.57-76.62,50.93-105.67,14.64-24.48,28.47-48.81,48.89-68.11,11.15-10.54,23.78-20.63,36.97-29.07,18.41-11.77,38.96-20.81,58.38-30.95,33.57-17.53,66.27-37.06,99.4-55.42,50.05-27.73,97.34-60.27,146.67-89.36,33.14-19.54,68.55-35.76,106.82-36.74,16.46-.42,33.87,.36,49.55,6.86,26.68,11.06,35.5,34.44,40.27,60.66,4.55,24.99,12.3,47.88,25.45,70.06,9.09,15.34,18.17,29.65,17.02,48.12Z"/>
    <path class="cls-2" d="M1024.08,745.65c-28.24,29.03-62.47,45.14-99.82,60.09-40.94,16.38-74.77,38.09-100.19,73.85-16.03,22.55-29.92,46.71-53.8,59.3-30.54,16.1-69.61,15.48-103.82,1.96-32.77-12.96-67.69-34.23-80.45-67.18-7.19-18.56-10.13-41.06-1.48-59.92,11.26-24.56,35.97-40.95,45.98-67.18,.15-.39,.22-.63,.29-.84,25.9-73.93,120.54-105.85,183.46-139.04,62.6-33.02,131.68-72.01,199.33-75.21,18.57-.88,40.48,4.28,57.79,13.58,27.23,14.62,26.24,54.07,21.1,80.19-9.13,46.36-36.25,87.38-68.38,120.41Z"/>
    <path class="cls-2" d="M981.95,727.03c-33.63,39.1-95.34,48.12-138.17,72.5-30.27,17.23-56.66,39.36-83.43,62.23-14.02,11.98-29.48,24.88-49.01,19.29-25.69-7.35-53.58-26.56-64.78-51.06-.64-1.41-1.07-2.55-1.15-2.83-5.31-19.21,13.77-48.42,21.8-64.36,7.16-14.21,14.2-29.63,23.72-42.4,23.49-31.5,67.61-44.69,101.37-62.28,51.36-26.76,99.68-52.68,155.67-67.11,24.12-6.22,69.21-22.11,89.54-5.81,12.81,10.27-4.56,43.18-9.47,54.73-12.66,29.76-24.6,62.13-46.08,87.11Z"/>
    <path class="cls-2" d="M947.14,715.49c-8.8,14.04-24.22,18.49-39.29,22.38-23.17,5.99-46.24,11.1-67.4,21.2-30.14,14.39-65.22,49.8-99.64,54.57-9.96,1.38-22.22,1.8-30.24-5.41,0,0-.48-.48-.84-1.03-14.73-22.69,3.78-59.99,20.33-77.21,16.77-17.45,47.57-22.42,69.12-33.14,33.45-16.64,62.91-41.95,97.56-57.08,19.95-8.71,81.08-33.56,92.3-19.76,3.08,3.79-4.16,12.16-7.65,17.21-8.87,12.83-17.46,25.46-23.01,39.49-4.45,11.26-4.48,27.95-11.26,38.77Z"/>
  </g>
  <path class="cls-1" d="M517.6,620.46c-6.93-2.92-13.19-7.62-19.37-12.07-6.99-5.04-13.93-10.17-20.86-15.31-17.76,20.56-37.93,41.47-51.53,65.37,8.69,4.08,17.11,8.88,25.51,13.55,6.27,3.48,12.57,6.83,18.97,9.79,12.4-22.61,28.5-43.98,47.73-61.15-.15-.06-.31-.11-.46-.17Z"/>
  <path class="cls-1" d="M606.63,621.19c-6.45,.76-13.51,3.22-19.3,1.52-15.82-4.65-31.2-1.81-46.73-.18-.03,.03-.06,.05-.1,.08,.9,15.34-12.85,31.05-22.42,41.01-7.15,7.44-15.06,14.22-23.5,20.16,10.81-.58,21.61-1.19,32.44-.79,5.81,.21,11.4,1.37,17.15,2.09,1.1-1.07,2.17-2.17,3.21-3.31,3.87-4.21,7.28-8.75,10.78-13.23,5.46-9.54,13.44-17.79,21.91-24.77,8.94-7.38,18.66-13.86,28.85-19.46,1.31-1.21,2.65-2.38,4-3.55-2.08,.05-4.17,.18-6.28,.43Z"/>
  <path class="cls-1" d="M506.47,660.04c-.67,.96-1.32,1.94-1.98,2.91,1.65-1.54,3.27-3.1,4.85-4.7,6.3-6.35,12.21-13.23,16.6-21.06,.36-.64,.71-1.29,1.06-1.96-7.48,7.69-14.34,15.96-20.53,24.8Z"/>
  <path class="cls-1" d="M511.6,693c3.42,.17,6.9,.14,10.45-.13-3.48-.04-6.97,.03-10.45,.13Z"/>
  <path class="cls-1" d="M877.28,682.51c-3.68-1.63-7.62-2.93-10.89-5.2-4.84-3.35-8.62-9.25-13.84-10.87-20.91-6.51-39.16-17.13-56.28-30.66-14.27-11.28-24.75-12.49-35.89,1.95-5.1,6.61-12.2,10.67-21.54,7.93-5.39-1.58-11.03-2.91-16.61-3.12-19.7-.75-38.52-5.66-57.37-10.84-7.96-2.19-15.85-4.79-23.84-6.91-8.5,4.54-17.26,8.61-25.28,13.96-5.99,4-10.57,9.09-15.49,14.29-5.56,5.88-11.24,11.61-15.75,18.36-1.84,2.75-5.03,2.74-7.2,1.36-1.16,1.23-2.32,2.45-3.5,3.65-.64,.65-1.28,1.3-1.92,1.96,.16,1-.08,2.1-.9,3.21-1.35,1.84-2.32,3.83-3.1,5.9,12.02-.48,24.04-.94,36.07-1.24,12.16-.3,24.32-.35,36.48-.33,23.64,.03,47.3-.47,70.91,.49,16.75,.67,33.62,2.31,50.08,5.41,22.44,4.22,44.58,9.26,67.7,7.64,11.12-.78,22.35,.03,33.53,.17,10.95,.14,21.76-.31,31.33-6.63v-3.27c-5.57-2.39-11.17-4.75-16.72-7.19Z"/>
  <path class="cls-1" d="M462.98,583.09c.13-.13,.27-.25,.4-.36-9.69-7.12-19.43-14.16-29.37-20.9-10.58-7.17-16.67-15.73-18.56-28.17-1.67-11-3.61-22.06-6.68-32.73-5.19-18.01-11.94-35.58-16.89-53.64-2.59-9.47-2.93-20.12,4.52-27.95,13.67-14.37,28.02-28.1,42.32-41.85,6.86-6.6,14.18-12.74,21.46-18.89,8.02-6.76,22.48-4.45,22.94,3.82,.97,17.54,7.67,32.49,17.43,46.74,2.1,3.06,1.48,9.47-.22,13.3-2.67,6.03-7.32,11.18-11.98,17.93,3.72-1.09,5.84-1.71,9.64-2.82-1.09,11.74-2.07,22.31-3.05,32.87,.43,.04,.86,.07,1.29,.11,1.86-7.21,3.72-14.43,5.58-21.64,1.08,.23,2.17,.46,3.25,.7-1.89,11.79-3.82,23.58-5.66,35.38-.46,2.94-.67,5.93-1,8.89,.73,.3,1.46,.59,2.19,.89-3.06,2.53-6.12,5.07-9.19,7.6,5.48-.3,10.74-1.33,15.74-3.08,9.69-3.4,9.74-3.51,11.53,7.82,2.7-6.8,4.78-12.03,6.86-17.25,.94-.11,1.88-.22,2.83-.32,1.89,5.61,5.57,11.36,5.17,16.8-.43,5.83-4.72,11.38-7.64,17.73,11.74-1.56,16.43-9.65,20.05-18.96,.91,.48,1.82,.97,2.73,1.45-1.7,5.73-3.39,11.46-4.97,16.79,6.58-1.32,10.47-6.42,8.59-13.39-2.67-9.89-5.34-19.87-9.15-29.36-12.32-30.69-3.49-63.35-9.26-94.66-.95-5.16,3.21-8.65,9.88-9.29,38.12-3.62,54.84-25.19,62.08-59.64,2.26-10.76-4.1-18.46-8.16-26.59-3.57-7.16-9.47-14.05-16.04-18.59-7.2-4.98-12.31-9.9-14.1-18.74-.63-3.11-4.39-7.04-7.48-7.91-7.65-2.15-9.54-4.2-4.7-10.48,6.63-8.58,13.5-17.43,21.9-24.1,18.8-14.92,37.87-29.33,52.69-48.58,7.14-9.27,15.17-17.84,22.75-26.78,8.73-10.3,16.89-21.16,26.31-30.78,4.33-4.42,8.43-10.47,16.9-9.5,14.71,1.68,29.55,2.32,44.34,3.19,1.86,.11,3.8-1.09,5.71-1.68-.72-1.91-.91-4.89-2.24-5.54-4.3-2.09-9.07-3.22-13.57-4.94-2.65-1.01-6.56-1.89-7.32-3.83-.78-2.01,1.11-5.55,2.69-7.84,1.65-2.4,4.07-4.51,6.59-6.03,9.32-5.63,18.9-10.81,28.19-16.48,3.67-2.24,6.83-5.34,10.22-8.04-.36-.92-.72-1.84-1.09-2.75-2.98,0-6.13-.62-8.92,.13-5.76,1.55-11.26,4.09-17.01,5.64-1.84,.5-5.76-.36-6.05-1.38-3.7-12.77-15.11-14.32-25.16-17.64-7.57-2.51-14.32,.21-19.06,5.99-6.67,8.12-12.67,16.82-18.58,25.53-7.8,11.5-17.86,19.37-31.62,22.68-4.28,1.03-8.36,3.77-11.98,6.46-7.19,5.34-13.79,11.48-21.02,16.76-16.08,11.74-32.85,22.56-48.52,34.8-44.79,35-87.45,72.27-121.55,118.33-2.46,3.32-7.18,6.18-11.26,6.87-12.01,2.03-24.34,2.19-36.31,4.4-8.59,1.58-18.68,3.13-24.76,8.47-13.63,11.98-25.68,25.9-37.44,39.82-10.54,12.48-20.38,25.64-29.46,39.21-5.2,7.77-9.11,16.67-12.12,25.56-5.48,16.2-9.85,32.78-14.68,49.2-2.09,7.09-5.33,8.16-12.61,4.95-20.89-9.21-42.09-17.82-63.59-25.49-11.97-4.27-24.15-1.24-31.47,9.37-6.03,8.74-10.24,19.15-13.29,29.4-2.34,7.89-1.58,16.69-2.27,25.07-2.07,25.15-4.98,50.26-6.02,75.44-.84,20.29-3.55,40.07-10.68,58.94-4.07,10.77-8.43,22.35-20.33,27.46-17.27,7.41-34.8,14.22-52.09,21.58-2.22,.94-3.69,3.64-5.5,5.52,2.42,1.32,4.75,3.61,7.26,3.81,16.83,1.37,33.68,2.89,50.55,3.2,15.75,.29,31.55-.5,47.28-1.5,7.02-.44,9.94-4.82,9.49-12.45-.63-10.57-.97-21.38,.52-31.8,4.03-28.04,11.44-55.23,23.38-81.09,2.36-5.12,4.24-10.68,5.11-16.24,1.68-10.65,2.48-21.43,3.64-32.16,.68-.59,1.35-1.19,2.03-1.78,7.95,7.49,16.6,14.38,23.71,22.6,16.04,18.53,34.32,34.3,54.88,47.47,7.33,4.69,15.74,7.84,22.59,13.09,18.16,13.9,35.35,29.07,53.66,42.76,15.65,11.7,31.39,23.33,49.39,31.46,17.02-23.44,32.61-47.99,53.4-68.39Z"/>
</svg>